<?xml version="1.0" encoding="UTF-8"?><svg xmlns="http://www.w3.org/2000/svg" xmlns:xlink="http://www.w3.org/1999/xlink" height="117.7" preserveAspectRatio="xMidYMid meet" version="1.0" viewBox="0.0 0.0 126.0 117.7" width="126.0" zoomAndPan="magnify"><g><g><g><g><g><path d="M39.44,72.67c1.67,0,3.02,1.35,3.02,3.02c0,1.66-1.35,3.01-3.02,3.01h-5.76v37.94h-6.04V78.7H1 v-6.03H39.44z" fill="#c2e6f9"/></g><g><path d="M27.64,116.64v0.02H5.74c-2.62,0-4.74-2.12-4.74-4.74V78.7h26.64V116.64z" fill="#115e98"/></g><g><path d="M54.29,106.07v5.85c0,2.62-2.13,4.74-4.75,4.74h-21.9v-0.02h6.04V78.7h5.76 c1.67,0,3.02-1.35,3.02-3.01c0-1.67-1.35-3.02-3.02-3.02H1v-4.35c0-2.62,2.12-4.74,4.74-4.74h17.43h26.37 c2.62,0,4.75,2.12,4.75,4.74V106.07z" fill="#115e98"/></g><g><path d="M65.53 22.02L45.07 37.03 24.61 22.02z" fill="#59a8aa"/></g><g><path d="M65.53 22.02L65.53 50.44 24.61 50.44 24.61 22.02 45.07 37.03z" fill="#86cbcf"/></g><g><path d="M71.71,48.15v10.68c0,2.62-2.12,4.75-4.74,4.75H49.54H23.17c-2.62,0-4.74-2.13-4.74-4.75v-43.6 c0-2.62,2.12-4.74,4.74-4.74h9.6h34.08c0,0,0.12,0,0.34,0.01c0.1,0.01,0.22,0.01,0.37,0.03c2.34,0.29,4.15,2.28,4.15,4.7v21.69 V48.15z M65.53,50.44V22.02H24.61v28.42H65.53z" fill="#a9dde0"/></g><g><path d="M110.36,26.14V43.4h-24.3V21.27h19.43C108.18,21.27,110.36,23.45,110.36,26.14z" fill="#ffc05a"/></g><g><path d="M125,48.15v43.59c0,2.62-2.12,4.75-4.74,4.75H92.64H76.46c-2.62,0-4.75-2.13-4.75-4.75V58.83 V48.15c0-2.62,2.13-4.75,4.75-4.75h9.6h24.3h9.9C122.88,43.4,125,45.53,125,48.15z M117.76,77.58 c0.92-0.96,0.91-2.47-0.06-3.38c-0.45-0.42-1.03-0.64-1.61-0.64c-0.44,0-0.89,0.13-1.28,0.38l-0.96,0.62 c-0.92,0.59-2.09,0.62-3.03,0.06l-10.08-5.9c-1.13-0.66-1.7-2.04-1.24-3.26c0.35-0.93,0.54-1.93,0.54-2.97 c0-2.77-1.33-5.22-3.39-6.76c0,0.01,3.05-1.78,2.15-3.54c-0.89-1.77-4.06-0.46-4.06-0.46s-2.6-2.7-4.18-1.37 c-1.58,1.33,1.07,3.72,1.07,3.72c-4.06,0-7.45,2.88-8.23,6.72c-0.21,1.02-0.92,1.89-1.88,2.31c-1.56,0.68-3.56,1.87-3.2,3.45 c0.37,1.65,3.16,1.66,5.04,1.46c0.99-0.1,2,0.16,2.76,0.81c0.93,0.82,2.04,1.43,3.27,1.76c0,0-5.31,7.04-1.99,13.47 s17.11,7.28,23.13,3.85c3.38-1.92,4.34-5.77,5.84-8.48C116.77,78.71,117.27,78.09,117.76,77.58z" fill="#52a7d7"/></g><g><path d="M117.7,74.2c0.97,0.91,0.98,2.42,0.06,3.38c-0.49,0.51-0.99,1.13-1.39,1.85 c-1.5,2.71-2.46,6.56-5.84,8.48c-6.02,3.43-19.81,2.58-23.13-3.85s1.99-13.47,1.99-13.47c-1.23-0.33-2.34-0.94-3.27-1.76 c-0.76-0.65-1.77-0.91-2.76-0.81c-1.88,0.2-4.67,0.19-5.04-1.46c-0.36-1.58,1.64-2.77,3.2-3.45c0.96-0.42,1.67-1.29,1.88-2.31 c0.78-3.84,4.17-6.72,8.23-6.72c0,0-2.65-2.39-1.07-3.72c1.58-1.33,4.18,1.37,4.18,1.37s3.17-1.31,4.06,0.46 c0.9,1.76-2.15,3.55-2.15,3.54c2.06,1.54,3.39,3.99,3.39,6.76c0,1.04-0.19,2.04-0.54,2.97c-0.46,1.22,0.11,2.6,1.24,3.26 l10.08,5.9c0.94,0.56,2.11,0.53,3.03-0.06l0.96-0.62c0.39-0.25,0.84-0.38,1.28-0.38C116.67,73.56,117.25,73.78,117.7,74.2z" fill="#e7f2f1"/></g><g><path d="M92.64,96.49v4.71c0,2.69-2.18,4.87-4.87,4.87H54.29V68.32c0-2.62-2.13-4.74-4.75-4.74h17.43 c2.62,0,4.74-2.13,4.74-4.75v32.91c0,2.62,2.13,4.75,4.75,4.75H92.64z" fill="#ae2c36"/></g><g><path d="M86.06,21.27V43.4h-9.6c-2.62,0-4.75,2.13-4.75,4.75V36.92c0.96-0.39,1.98-0.89,2.96-1.54v-0.01 l6.07,2.35l-2.27-6.17c1.16-1.85,1.92-4.21,1.92-7.22c0-11.92-10.04-13.57-12.83-13.8c-0.12-0.02-0.24-0.03-0.37-0.03 c-0.22-0.01-0.34-0.01-0.34-0.01H32.77V5.87c0-2.69,2.18-4.87,4.87-4.87h43.55c2.69,0,4.87,2.18,4.87,4.87V21.27z" fill="#349370"/></g><g><path d="M78.47,31.55l2.27,6.17l-6.07-2.35v0.01c-0.98,0.65-2,1.15-2.96,1.54V15.23 c0-2.42-1.81-4.41-4.15-4.7c2.79,0.23,12.83,1.88,12.83,13.8C80.39,27.34,79.63,29.7,78.47,31.55z" fill="#a7d276"/></g></g></g></g><g fill="#3a322b"><path d="M120.256,42.402h-8.9V26.138c0-3.234-2.631-5.866-5.866-5.866H87.057V5.865 C87.057,2.631,84.426,0,81.191,0H37.636c-3.235,0-5.866,2.631-5.866,5.865V9.49h-8.6c-3.167,0-5.744,2.577-5.744,5.744v43.598 c0,1.43,0.529,2.737,1.397,3.743H5.744C2.577,62.575,0,65.152,0,68.319v4.347v6.039v33.212c0,3.167,2.577,5.743,5.744,5.743h43.8 c3.167,0,5.743-2.576,5.743-5.743v-4.846H87.77c3.235,0,5.866-2.632,5.866-5.866v-3.718h26.62c3.167,0,5.744-2.576,5.744-5.743 V48.146C126,44.979,123.423,42.402,120.256,42.402z M105.49,22.271c2.132,0,3.866,1.734,3.866,3.866v16.265H87.057V22.271H105.49z M33.77,5.865C33.77,3.734,35.504,2,37.636,2h43.555c2.132,0,3.866,1.734,3.866,3.865v36.537h-8.601 c-1.43,0-2.737,0.529-3.743,1.397v-6.236c0.725-0.323,1.426-0.675,2.072-1.074l5.591,2.167c0.117,0.045,0.24,0.067,0.361,0.067 c0.257,0,0.51-0.1,0.701-0.287c0.28-0.275,0.374-0.689,0.238-1.058l-2.104-5.725c1.206-2.102,1.816-4.563,1.816-7.323 c0-12.549-10.527-14.487-13.665-14.785C67.477,9.513,67.226,9.49,66.97,9.49h-33.2V5.865z M77.529,31.894l1.506,4.099l-4-1.55 c-0.303-0.115-0.643-0.08-0.914,0.099c-0.443,0.294-0.916,0.565-1.408,0.818V15.234c0-0.954-0.237-1.853-0.651-2.646 c3.447,1.393,7.327,4.556,7.327,11.742c0,2.569-0.595,4.818-1.768,6.686C77.456,31.279,77.422,31.604,77.529,31.894z M19.426,58.832V15.234c0-2.064,1.679-3.744,3.744-3.744h43.676c0.025,0,0.083,0.001,0.158,0.003 c2.048,0.019,3.71,1.688,3.71,3.741v21.666c0,0,0,0.001,0,0.001v11.244v10.687c0,2.064-1.679,3.743-3.744,3.743H49.543H23.17 C21.105,62.575,19.426,60.896,19.426,58.832z M32.682,78.705v36.938h-4.039V78.705c0-0.553-0.448-1-1-1H2v-4.039h37.439 c1.114,0,2.02,0.906,2.02,2.02s-0.906,2.02-2.02,2.02h-5.757C33.13,77.705,32.682,78.152,32.682,78.705z M2,111.917V79.705h24.644 v35.955h-20.9C3.679,115.66,2,113.981,2,111.917z M53.287,111.917c0,2.064-1.679,3.743-3.743,3.743H34.682V79.705h4.757 c2.216,0,4.02-1.803,4.02-4.02s-1.803-4.02-4.02-4.02H2v-3.347c0-2.064,1.679-3.744,3.744-3.744H23.17h26.374 c2.064,0,3.743,1.68,3.743,3.744V111.917z M91.636,101.205c0,2.132-1.734,3.866-3.866,3.866H55.287V68.319 c0-1.43-0.529-2.737-1.397-3.744h13.08c1.43,0,2.737-0.529,3.744-1.397v28.566c0,3.167,2.576,5.743,5.743,5.743h15.18V101.205z M124,91.744c0,2.064-1.679,3.743-3.744,3.743h-43.8c-2.064,0-3.743-1.679-3.743-3.743V58.832V48.146 c0-2.064,1.679-3.743,3.743-3.743h43.8c2.064,0,3.744,1.679,3.744,3.743V91.744z" fill="inherit"/><path d="M66.527,50.436V22.021c0-0.039-0.018-0.071-0.022-0.109c-0.007-0.068-0.018-0.132-0.04-0.198 c-0.022-0.066-0.051-0.125-0.085-0.184c-0.019-0.033-0.024-0.069-0.047-0.1c-0.015-0.021-0.038-0.031-0.055-0.05 c-0.045-0.053-0.096-0.095-0.151-0.137c-0.05-0.039-0.099-0.076-0.155-0.104c-0.054-0.027-0.111-0.044-0.17-0.061 c-0.069-0.02-0.135-0.037-0.207-0.042c-0.024-0.002-0.045-0.014-0.069-0.014H24.613c-0.026,0-0.047,0.013-0.072,0.015 c-0.07,0.005-0.134,0.021-0.201,0.041c-0.061,0.018-0.118,0.034-0.174,0.062c-0.055,0.028-0.103,0.065-0.153,0.103 c-0.055,0.042-0.106,0.085-0.151,0.138c-0.017,0.019-0.04,0.029-0.055,0.05c-0.023,0.031-0.028,0.068-0.047,0.1 c-0.034,0.059-0.064,0.118-0.085,0.184c-0.022,0.066-0.033,0.13-0.04,0.198c-0.004,0.038-0.022,0.07-0.022,0.109v28.415 c0,0.553,0.448,1,1,1h40.914C66.079,51.436,66.527,50.988,66.527,50.436z M62.473,23.021L45.07,35.793L27.666,23.021H62.473z M25.613,49.436v-25.44L44.478,37.84c0.176,0.129,0.384,0.193,0.592,0.193s0.416-0.064,0.592-0.193l18.865-13.845v25.44H25.613z" fill="inherit"/><path d="M114.269,73.096l-0.958,0.62c-0.606,0.39-1.368,0.406-1.99,0.043l-10.074-5.898 c-0.738-0.433-1.085-1.314-0.807-2.05c0.401-1.062,0.604-2.18,0.604-3.323c0-2.511-1.021-4.922-2.782-6.676 c1.285-1.085,2.191-2.583,1.431-4.079c-0.906-1.782-3.16-1.631-4.713-1.154c-1.312-1.152-3.467-2.327-5.066-0.979 c-0.55,0.463-0.847,1.073-0.857,1.766c-0.011,0.688,0.267,1.356,0.618,1.923c-3.591,0.77-6.503,3.608-7.258,7.311 c-0.145,0.71-0.628,1.307-1.293,1.595c-3.632,1.575-4.061,3.363-3.781,4.587c0.292,1.276,1.592,2.702,6.117,2.24 c0.766-0.078,1.496,0.128,2.002,0.569c0.715,0.621,1.526,1.134,2.393,1.516c-1.421,2.348-4.134,8.001-1.344,13.412 c1.25,2.423,3.852,4.28,7.527,5.372c2.263,0.672,4.793,0.998,7.275,0.998c3.7,0,7.291-0.725,9.715-2.104 c2.833-1.611,4.093-4.364,5.205-6.794c0.341-0.745,0.663-1.448,1.011-2.077c0.308-0.557,0.723-1.108,1.233-1.64 c0.644-0.671,0.984-1.547,0.96-2.465c-0.024-0.896-0.397-1.728-1.051-2.341C117.261,72.41,115.567,72.258,114.269,73.096z M117.035,76.888c-0.63,0.656-1.148,1.348-1.54,2.056c-0.385,0.695-0.723,1.433-1.08,2.214c-1.034,2.259-2.104,4.595-4.376,5.888 c-3.627,2.063-10.262,2.461-15.432,0.927c-2.19-0.65-5.063-1.937-6.319-4.371c-2.908-5.64,1.615-12.012,1.89-12.39 c0.07-0.089,0.126-0.19,0.163-0.304c0.009-0.026,0.016-0.054,0.023-0.08c0.044-0.185,0.034-0.369-0.02-0.538 c-0.061-0.191-0.179-0.365-0.351-0.495c-0.114-0.086-0.241-0.144-0.372-0.174c-1.042-0.294-2.025-0.826-2.847-1.54 c-0.921-0.802-2.204-1.184-3.518-1.051c-2.565,0.262-3.842-0.16-3.965-0.695c-0.149-0.655,0.857-1.539,2.627-2.307 c1.264-0.548,2.182-1.681,2.458-3.029c0.699-3.43,3.752-5.919,7.259-5.919c0.414,0,0.786-0.256,0.934-0.643 c0.148-0.387,0.042-0.825-0.266-1.102c-0.528-0.474-1.254-1.411-1.246-1.939c0.001-0.077,0.013-0.155,0.146-0.268 c0.605-0.51,2.133,0.59,2.816,1.293c0.285,0.294,0.722,0.387,1.098,0.229c0.619-0.254,2.43-0.729,2.794-0.012 c0.326,0.642-0.994,1.773-1.773,2.236c-0.288,0.171-0.471,0.475-0.488,0.809s0.133,0.654,0.401,0.854 c1.902,1.414,2.994,3.583,2.994,5.949c0,0.901-0.16,1.782-0.475,2.616c-0.628,1.663,0.073,3.548,1.667,4.482l10.074,5.899 c1.277,0.746,2.842,0.714,4.086-0.09l0.958-0.62c0.526-0.339,1.209-0.276,1.664,0.15c0.261,0.245,0.411,0.577,0.42,0.935 C117.449,76.241,117.305,76.605,117.035,76.888z" fill="inherit"/></g></g></svg>