<?xml version="1.0" encoding="UTF-8" standalone="no"?><svg xmlns="http://www.w3.org/2000/svg" xmlns:xlink="http://www.w3.org/1999/xlink" fill="#000000" height="510" preserveAspectRatio="xMidYMid meet" version="1" viewBox="1.0 1.0 510.0 510.0" width="510" zoomAndPan="magnify"><g><g><g id="change1_1"><path d="M256,16c132.55,0,240,107.45,240,240S388.55,496,256,496S16,388.55,16,256S123.45,16,256,16z" fill="#a4c2f7"/></g><g fill="#000000" id="change2_1"><path d="M256,1C115.068,1,1,115.049,1,256c0,140.932,114.049,255,255,255c140.932,0,255-114.049,255-255 C511,115.068,396.951,1,256,1z M256,481C131.935,481,31,380.065,31,256S131.935,31,256,31s225,100.935,225,225 S380.065,481,256,481z"/><path d="M370.904,137.56c-28.268-28.269-74.262-28.267-102.529,0l-45.963,45.962 c-6.875,6.875-12.065,14.805-15.596,23.268c-8.661,3.629-16.611,8.939-23.295,15.623l-45.962,45.963 c-28.268,28.268-28.268,74.262,0,102.529c1.816,1.24,19.667,24.739,54.801,24.737c18.563-0.002,37.133-7.069,51.265-21.201 l45.963-45.962c6.876-6.875,12.065-14.805,15.596-23.268c8.661-3.629,16.61-8.939,23.295-15.623l45.962-45.963 c28.268-28.268,28.268-74.262,0-102.529L370.904,137.56z M353.228,222.412l-43.358,43.358 c-4.382-27.631-22.314-41.346-23.818-43.358c-5.857-5.857-15.355-5.857-21.213,0c-5.858,5.857-5.858,15.355,0,21.213l3.536,3.536 c16.607,16.607,16.611,43.493,0,60.104l-45.963,45.962c-16.57,16.57-43.533,16.57-60.104,0l-3.536-3.536 c-16.57-16.57-16.57-43.533,0-60.104l43.358-43.358c4.382,27.631,22.314,41.346,23.818,43.358c5.857,5.857,15.355,5.857,21.213,0 c5.858-5.857,5.858-15.355,0-21.213c-1.3-1.809-15.983-12.292-15.983-33.589c0-11.352,4.42-22.024,12.447-30.052l45.963-45.962 c16.57-16.57,43.533-16.57,60.104,0l3.536,3.536C369.798,178.879,369.798,205.842,353.228,222.412z"/></g></g></g></svg>